Artist: Meshuggah
Album: Catch Thirtythree
Year of Release: 2005
Origin: Umeå, Sweden
Genre: Extreme Metal/Progressive Metal/Avant-garde Metal
Album Type: Full Length
# of Tracks: 13
Playing Time: 47:18
File Size: 305 MB
Format: FLAC (Tracks/Cue/Log) + Covers

Track list:

01) Autonomy Lost - 1:40
02) Imprint of the Un-Saved - 1:36
03) Disenchantment - 1:45
04) The Paradoxical Spiral - 3:13
05) Re-Inanimate - 1:04
06) Entrapment - 2:29
07) Mind's Mirrors - 4:30
08) In Death - Is Life - 2:02
09) In Death - Is Death - 13:22
10) Shed - 3:35
11) Personae Non Gratae - 1:47
12) Dehumanization - 2:57
13) Sum - 7:17

Log:

Exact Audio Copy V0.99 prebeta 5 from 4. May 2009

EAC extraction logfile from 4. April 2010, 3:57

Meshuggah / Catch Thirtythree

Used drive : GPOREB IJ8X2RCLMNC Adapter: 4 ID: 0

Read mode : Secure
Utilize accurate stream : Yes
Defeat audio cache : Yes
Make use of C2 pointers : No

Read offset correction : 6
Overread into Lead-In and Lead-Out : No
Fill up missing offset samples with silence : Yes
Delete leading and trailing silent blocks : No
Null samples used in CRC calculations : Yes
Used interface : Native Win32 interface for Win NT & 2000
Gap handling : Appended to previous track

Used output format : Internal WAV Routines
Sample format : 44.100 Hz; 16 Bit; Stereo


TOC of the extracted CD

Track | Start | Length | Start sector | End sector 
---------------------------------------------------------
1 | 0:00.00 | 1:40.53 | 0 | 7552 
2 | 1:40.53 | 1:36.00 | 7553 | 14752 
3 | 3:16.53 | 1:44.03 | 14753 | 22555 
4 | 5:00.56 | 3:11.68 | 22556 | 36948 
5 | 8:12.49 | 1:04.04 | 36949 | 41752 
6 | 9:16.53 | 2:28.71 | 41753 | 52923 
7 | 11:45.49 | 4:29.44 | 52924 | 73142 
8 | 16:15.18 | 2:01.62 | 73143 | 82279 
9 | 18:17.05 | 13:22.47 | 82280 | 142476 
10 | 31:39.52 | 3:34.29 | 142477 | 158555 
11 | 35:14.06 | 1:47.20 | 158556 | 166600 
12 | 37:01.26 | 2:55.59 | 166601 | 179784 
13 | 39:57.10 | 7:18.04 | 179785 | 212638 


Track 1

Filename C:EACCatch Thirtythree 1 - Autonomy Lost.wav

Pre-gap length 0:00:02.00

Peak level 100.0 %
Track quality 100.0 %
Test CRC B757CF28
Copy CRC B757CF28
Accurately ripped (confidence 63) [93954B4D]
Copy OK

Track 2

Filename C:EACCatch Thirtythree 2 - Imprint of the Un-Saved.wav

Peak level 100.0 %
Track quality 100.0 %
Test CRC B8ED0181
Copy CRC B8ED0181
Accurately ripped (confidence 63) [8A229515]
Copy OK

Track 3

Filename C:EACCatch Thirtythree 3 - Disenchantment.wav

Peak level 100.0 %
Track quality 100.0 %
Test CRC 9989A817
Copy CRC 9989A817
Accurately ripped (confidence 64) [9E0F851F]
Copy OK

Track 4

Filename C:EACCatch Thirtythree 4 - The Paradoxical Spiral.wav

Peak level 100.0 %
Track quality 99.9 %
Test CRC 7E548D28
Copy CRC 7E548D28
Accurately ripped (confidence 64) [36298C51]
Copy OK

Track 5

Filename C:EACCatch Thirtythree 5 - Re-Inanimate.wav

Peak level 100.0 %
Track quality 99.8 %
Test CRC 53D60EA5
Copy CRC 53D60EA5
Accurately ripped (confidence 64) [55D62848]
Copy OK

Track 6

Filename C:EACCatch Thirtythree 6 - Entrapment.wav

Peak level 100.0 %
Track quality 100.0 %
Test CRC 0725A8A0
Copy CRC 0725A8A0
Accurately ripped (confidence 64) [BB0A1A7C]
Copy OK

Track 7

Filename C:EACCatch Thirtythree 7 - Mind's Mirrors.wav

Peak level 100.0 %
Track quality 100.0 %
Test CRC 70A8D4B8
Copy CRC 70A8D4B8
Accurately ripped (confidence 63) [E5477FD4]
Copy OK

Track 8

Filename C:EACCatch Thirtythree 8 - In Death - Is Life.wav

Peak level 100.0 %
Track quality 100.0 %
Test CRC C0CEAF85
Copy CRC C0CEAF85
Accurately ripped (confidence 64) [B4DB12A7]
Copy OK

Track 9

Filename C:EACCatch Thirtythree 9 - In Death - Is Death.wav

Peak level 100.0 %
Track quality 100.0 %
Test CRC 9239E649
Copy CRC 9239E649
Accurately ripped (confidence 63) [64760B75]
Copy OK

Track 10

Filename C:EACCatch Thirtythree10 - Shed.wav

Peak level 100.0 %
Track quality 100.0 %
Test CRC ED97BDF7
Copy CRC ED97BDF7
Accurately ripped (confidence 62) [3B7EB448]
Copy OK

Track 11

Filename C:EACCatch Thirtythree11 - Personae Non Gratae.wav

Peak level 100.0 %
Track quality 99.9 %
Test CRC C52B2AA1
Copy CRC C52B2AA1
Accurately ripped (confidence 64) [A6BFAADF]
Copy OK

Track 12

Filename C:EACCatch Thirtythree12 - Dehumanization.wav

Peak level 100.0 %
Track quality 100.0 %
Test CRC B245C486
Copy CRC B245C486
Accurately ripped (confidence 63) [2A20C9BE]
Copy OK

Track 13

Filename C:EACCatch Thirtythree13 - Sum.wav

Peak level 100.0 %
Track quality 100.0 %
Test CRC B5DFD2E5
Copy CRC B5DFD2E5
Accurately ripped (confidence 60) [0FD8CA6E]
Copy OK


All tracks accurately ripped

No errors occurred

End of status report

Let the headbanging begin!!! =P